# This file uses centimeters as units for non-parametric coordinates.

mtllib door.mtl
g default
v -22.627285 0.409497 232.745789
v -23.026840 1.395175 232.745789
v -22.620247 1.392363 231.759216
v -21.638662 1.388177 231.350555
v -21.644396 0.406601 231.759216
v -21.645695 0.000000 232.745789
v 26.396372 0.411874 232.751740
v 25.414782 -0.000000 232.751648
v 25.412403 0.406630 231.760925
v 25.401985 1.388177 231.350555
v 26.383558 1.395772 231.760925
v 26.790163 1.400856 232.751648
v 26.387320 130.737671 232.783966
v 26.796814 129.749802 232.783325
v 26.389664 129.747589 231.770081
v 25.408142 129.727463 231.350555
v 25.397650 130.709137 231.770081
v 25.387157 131.116165 232.783325
v -22.092951 128.524231 232.707520
v -21.130610 128.962723 232.708099
v -21.117327 128.556061 231.748108
v -21.097717 127.574585 231.350555
v -22.079035 127.548187 231.748108
v -22.485876 127.542397 232.708099
v 25.428677 130.711319 236.675537
v 25.408142 129.727463 237.082245
v 26.390873 129.778671 236.675537
v 26.797485 129.794403 235.694061
v 26.400738 130.751526 235.694061
v 25.431711 131.118225 235.694061
v -22.079370 127.526917 236.675598
v -21.097717 127.574585 237.082245
v -21.096096 128.557388 236.675598
v -21.100016 128.964142 235.694061
v -22.084068 128.515747 235.694061
v -22.485857 127.511772 235.694061
v -21.649307 0.406582 236.675659
v -21.638662 1.388177 237.082245
v -22.620316 1.387453 236.675659
v -23.026911 1.388106 235.694061
v -22.629379 0.407422 235.694061
v -21.652763 0.000000 235.694061
v 26.383785 1.386799 236.675659
v 25.401985 1.388177 237.082245
v 25.421379 0.406568 236.675659
v 25.427696 -0.000000 235.694061
v 26.400238 0.408077 235.694061
v 26.790401 1.387944 235.694061
v -22.445662 0.589293 231.940521
v 26.213736 0.591187 231.942993
v 26.207521 130.552170 231.956390
v -21.909483 128.349167 231.924377
v 26.221033 130.566116 236.495026
v -21.900984 128.341049 236.495270
v -22.447720 0.587256 236.495239
v 26.217550 0.587443 236.495209
v -21.113976 53.305264 231.350555
v -21.059235 64.838654 231.350555
v -22.095573 53.305374 231.757355
v -22.040808 64.838753 231.756378
v -22.447420 64.838715 232.736145
v -22.502167 53.305450 232.739410
v 25.411936 64.838120 231.758209
v 25.430899 53.304737 231.757507
v 25.837547 53.305401 232.740021
v 25.818617 64.838783 232.742371
v 24.430248 64.836494 231.350555
v 24.449179 53.303097 231.350555
v 25.818617 64.838783 235.694061
v 25.837547 53.305401 235.694061
v 25.411995 64.838112 236.675659
v 25.430906 53.304733 236.675659
v 24.449179 53.303097 237.082245
v 24.430248 64.836494 237.082245
v -21.059200 64.838654 237.082245
v -21.113943 53.305264 237.082245
v -22.040829 64.838753 236.675659
v -22.095568 53.305374 236.675659
v -22.502167 53.305450 235.694031
v -22.447420 64.838715 235.694031
v -21.113976 53.305264 228.611938
v -21.059235 64.838654 228.611938
v 24.430248 64.836494 228.611938
v 24.449179 53.303097 228.611938
v 24.430248 64.836494 240.255341
v 24.449179 53.303097 240.255341
v -21.059200 64.838654 240.255341
v -21.113943 53.305264 240.255341
v -21.059235 64.838654 229.296692
v -21.059235 64.838654 230.665833
v -21.113976 53.305264 230.665833
v -21.113976 53.305264 229.296692
v 24.449179 53.303097 230.665833
v 24.449179 53.303097 229.296692
v 24.430248 64.836494 230.665833
v 24.430248 64.836494 229.296692
v -21.059200 64.838654 239.353363
v -21.059200 64.838654 237.984222
v 24.430248 64.836494 237.984222
v 24.430248 64.836494 239.353363
v 24.449179 53.303097 237.984222
v 24.449179 53.303097 239.353363
v -21.113943 53.305264 237.984222
v -21.113943 53.305264 239.353363
v -19.520893 62.649750 229.544067
v -19.520893 62.649750 230.418457
v 22.891697 62.647736 230.418457
v 22.891697 62.647736 229.544067
v -19.572933 55.494022 229.544067
v -19.572933 55.494022 230.418457
v 22.908346 55.492001 229.544067
v 22.908346 55.492001 230.418457
v -19.520859 62.649750 239.105988
v -19.520859 62.649750 238.231598
v 22.891701 62.647736 239.105988
v 22.891701 62.647736 238.231598
v 22.908346 55.492001 239.105988
v 22.908346 55.492001 238.231598
v -19.572901 55.494022 239.105988
v -19.572901 55.494022 238.231598
v 25.408142 129.727463 234.732758
v 24.430248 64.836494 234.732758
v -21.097717 127.574585 234.732758
v -21.059200 64.838654 234.732758
v -21.113943 53.305264 234.732758
v -21.638662 1.388177 234.732758
v 25.401985 1.388177 234.732758
v 24.449179 53.303097 234.732758
v -21.059235 64.838654 233.700043
v 24.430248 64.836494 233.700043
v -21.097717 127.574585 233.700043
v 25.408142 129.727463 233.700043
v 24.449179 53.303097 233.700043
v -21.113976 53.305264 233.700043
v 25.401985 1.388177 233.700043
v -21.638662 1.388177 233.700043
vt 0.203269 0.311240
vt 0.179754 0.518759
vt 0.664860 1.000000
vt 0.739525 1.000000
vt 0.203247 0.311438
vt 0.179739 0.518895
vt 0.664871 1.000000
vt 0.739504 1.000000
vt 0.662020 0.998544
vt 0.664024 1.000000
vt 0.664024 1.000000
vt 0.739163 0.997773
vt 0.740360 1.000000
vt 0.740360 1.000000
vt 0.206261 0.310774
vt 0.203533 0.308910
vt 0.203533 0.308910
vt 0.181622 0.524940
vt 0.179486 0.521126
vt 0.179486 0.521126
vt 0.206508 0.315266
vt 0.206213 0.310653
vt 0.182990 0.522870
vt 0.181660 0.524940
vt 0.662639 0.997133
vt 0.662022 0.998549
vt 0.737327 0.997134
vt 0.739178 0.997787
vt 0.662659 1.000000
vt 0.662659 1.000000
vt 0.741726 1.000000
vt 0.741726 1.000000
vt 0.203970 0.305055
vt 0.203970 0.305055
vt 0.179053 0.524943
vt 0.179053 0.524943
vt 0.203970 0.305055
vt 0.179053 0.524943
vt 0.662659 1.000000
vt 0.741726 1.000000
vt 0.547264 0.749710
vt 0.660274 0.997635
vt 0.658742 0.996116
vt 0.513174 0.851772
vt 0.519584 0.713857
vt 0.210790 0.313889
vt 0.208029 0.310313
vt 0.210096 0.316479
vt 0.519802 0.714140
vt 0.209888 0.319826
vt 0.519759 0.714369
vt 0.185907 0.529244
vt 0.185371 0.531118
vt 0.470642 0.809765
vt 0.186386 0.527230
vt 0.734954 0.994118
vt 0.209888 0.319826
vt 0.660353 0.994118
vt 0.519821 0.714164
vt 0.210578 0.313614
vt 0.185232 0.530982
vt 0.470592 0.809917
vt 0.513023 0.851622
vt 0.658762 0.996136
vt 0.737115 0.994065
vt 0.566263 0.774164
vt 0.738928 0.996398
vt 0.566249 0.774145
vt 0.734954 0.994118
vt 0.566429 0.774378
vt 0.182893 0.528696
vt 0.470592 0.809917
vt 0.186386 0.527230
vt 0.470398 0.809728
vt 0.566144 0.774150
vt 0.737157 0.994119
vt 0.736132 0.994187
vt 0.513105 0.851527
vt 0.660353 0.994118
vt 0.513024 0.851622
vt 0.659578 0.995185
vt 0.472032 0.807348
vt 0.514490 0.849194
vt 0.518400 0.716903
vt 0.472032 0.807348
vt 0.564725 0.776377
vt 0.518400 0.716903
vt 0.514490 0.849194
vt 0.564725 0.776377
vt 0.518400 0.716903
vt 0.564725 0.776377
vt 0.472032 0.807348
vt 0.518400 0.716903
vt 0.514491 0.849194
vt 0.472032 0.807348
vt 0.564725 0.776377
vt 0.514491 0.849194
vt 0.472032 0.807348
vt 0.514490 0.849194
vt 0.514490 0.849194
vt 0.564725 0.776377
vt 0.564725 0.776377
vt 0.518400 0.716903
vt 0.518400 0.716903
vt 0.472032 0.807348
vt 0.472032 0.807348
vt 0.518400 0.716903
vt 0.518400 0.716903
vt 0.564725 0.776377
vt 0.564725 0.776377
vt 0.514491 0.849194
vt 0.514491 0.849194
vt 0.472032 0.807348
vt 0.472032 0.807348
vt 0.472032 0.807348
vt 0.518400 0.716903
vt 0.518400 0.716903
vt 0.514490 0.849194
vt 0.514490 0.849194
vt 0.564725 0.776377
vt 0.564725 0.776377
vt 0.472032 0.807348
vt 0.472032 0.807348
vt 0.518400 0.716903
vt 0.518400 0.716903
vt 0.564725 0.776377
vt 0.564725 0.776377
vt 0.514491 0.849194
vt 0.514491 0.849194
vt 0.518400 0.716903
vt 0.209888 0.319826
vt 0.186386 0.527230
vt 0.472032 0.807348
vt 0.514491 0.849194
vt 0.660353 0.994118
vt 0.734954 0.994118
vt 0.564725 0.776377
vt 0.518400 0.716903
vt 0.472032 0.807348
vt 0.186386 0.527230
vt 0.209888 0.319826
vt 0.514490 0.849194
vt 0.564725 0.776377
vt 0.734954 0.994118
vt 0.660353 0.994118
vn -0.994773 0.003033 -0.102062
vn -0.927622 -0.367112 -0.068900
vn -0.927738 -0.367107 0.067333
vn -0.994754 0.003015 0.102247
vn -0.376468 -0.923864 -0.068900
vn -0.007717 -0.994747 -0.102069
vn -0.007761 -0.994718 0.102348
vn -0.376466 -0.923980 0.067333
vn -0.005250 -0.925055 -0.379798
vn 0.005359 -0.925060 -0.379783
vn 0.007746 -0.994762 -0.101926
vn -0.005313 -0.384400 -0.923151
vn -0.210059 -0.189321 -0.959184
vn 0.210580 -0.187637 -0.959400
vn 0.005413 -0.384388 -0.923156
vn 0.378317 -0.923051 -0.069668
vn 0.378312 -0.923265 0.066793
vn 0.007794 -0.994723 0.102305
vn 0.929836 -0.361319 -0.069669
vn 0.994726 0.011215 -0.101956
vn 0.994692 0.011181 0.102291
vn 0.930051 -0.361309 0.066793
vn 0.994793 -0.009261 -0.101491
vn 0.924461 0.374027 -0.074004
vn 0.925241 0.373984 0.063753
vn 0.994681 -0.009166 0.102595
vn 0.345017 0.935675 -0.074004
vn -0.038032 0.994139 -0.101195
vn -0.037969 0.994064 0.101956
vn 0.344949 0.936454 0.063750
vn -0.036721 0.923998 -0.380631
vn -0.047382 0.923429 -0.380834
vn -0.053585 0.993233 -0.103042
vn -0.011710 0.383521 -0.923458
vn 0.228629 0.164456 -0.959522
vn -0.233469 0.170569 -0.957287
vn -0.022482 0.383178 -0.923401
vn -0.406462 0.911409 -0.064206
vn -0.406479 0.910923 0.070669
vn -0.053602 0.993288 0.102500
vn -0.929452 0.363314 -0.064209
vn -0.994676 0.005102 -0.102929
vn -0.994766 0.005040 0.102060
vn -0.928967 0.363353 0.070667
vn 0.224654 0.163622 0.960603
vn -0.011958 0.381620 0.924242
vn -0.022712 0.381675 0.924017
vn -0.236144 0.169841 0.956760
vn -0.037533 0.923371 0.382069
vn -0.048094 0.922952 0.381898
vn -0.209518 -0.188013 0.959559
vn -0.005315 -0.382035 0.924133
vn 0.005367 -0.381992 0.924150
vn 0.209564 -0.186323 0.959878
vn -0.005238 -0.924108 0.382095
vn 0.005226 -0.924103 0.382108
vn -0.327732 -0.887512 -0.323905
vn -0.924467 0.004502 -0.381237
vn -0.890777 -0.318749 -0.323905
vn -0.383086 -0.000985 -0.923712
vn -0.327632 -0.324350 -0.887386
vn 0.924704 0.012070 -0.380494
vn 0.893072 -0.313422 -0.322784
vn 0.329758 -0.887170 -0.322785
vn 0.383790 0.002115 -0.923418
vn 0.329617 -0.323598 -0.886926
vn 0.299011 0.899993 -0.317183
vn 0.926232 -0.009771 -0.376828
vn 0.890227 0.326925 -0.317200
vn 0.387831 -0.001573 -0.921729
vn 0.324723 0.335005 -0.884492
vn -0.922368 0.003124 -0.386300
vn -0.889775 0.313422 -0.331762
vn -0.354772 0.874116 -0.331749
vn -0.378432 0.003408 -0.925623
vn -0.329428 0.314330 -0.890323
vn 0.294483 0.897453 0.328418
vn 0.382027 -0.001647 0.924150
vn 0.312629 0.322543 0.893437
vn 0.924011 -0.010175 0.382231
vn 0.887831 0.322327 0.328423
vn -0.924091 0.003432 0.382156
vn -0.891768 0.316633 0.323255
vn -0.382395 0.003521 0.923993
vn -0.338138 0.322652 0.884058
vn -0.358074 0.875950 0.323256
vn -0.327018 -0.887099 0.325753
vn -0.382136 -0.000963 0.924105
vn -0.325683 -0.322417 0.888807
vn -0.924092 0.004584 0.382142
vn -0.890361 -0.318033 0.325748
vn 0.924011 0.012214 0.382171
vn 0.892304 -0.312115 0.326158
vn 0.382095 0.002141 0.924120
vn 0.326016 -0.320083 0.889528
vn 0.328444 -0.886422 0.326160
vn 0.000000 0.000000 -1.000000
vn 0.000000 0.000000 -1.000000
vn 0.000000 0.000000 -1.000000
vn 0.000000 0.000000 -1.000000
vn -0.379359 0.000029 -0.925250
vn -0.383393 0.003479 -0.923579
vn -0.383396 0.003484 -0.923577
vn -0.379361 0.000030 -0.925249
vn -0.922444 0.000105 -0.386132
vn -0.924131 0.008402 -0.381984
vn -0.994651 0.009074 -0.102890
vn -0.994716 0.000190 -0.102662
vn -0.994646 0.009084 0.102945
vn -0.994746 0.000216 0.102371
vn 0.387565 -0.004807 -0.921830
vn 0.384090 0.005875 -0.923277
vn 0.384087 0.005857 -0.923278
vn 0.387552 -0.004791 -0.921836
vn 0.924365 0.014119 -0.381248
vn 0.925730 -0.011498 -0.378010
vn 0.994580 -0.012441 -0.103231
vn 0.994559 0.015224 -0.103056
vn 0.994549 -0.012472 0.103524
vn 0.994549 0.015231 0.103155
vn 0.923836 -0.011587 0.382614
vn 0.923767 0.014139 0.382694
vn 0.382629 0.005869 0.923884
vn 0.382637 -0.004810 0.923886
vn 0.382636 -0.004794 0.923886
vn 0.382629 0.005851 0.923884
vn -0.000000 0.000000 1.000000
vn -0.000000 0.000000 1.000000
vn -0.000000 0.000000 1.000000
vn -0.000000 0.000000 1.000000
vn -0.382671 0.003492 0.923878
vn -0.382675 0.000083 0.923883
vn -0.382675 0.000085 0.923883
vn -0.382671 0.003497 0.923878
vn -0.923848 0.008435 0.382667
vn -0.923890 0.000202 0.382659
vn -0.000000 0.000000 1.000000
vn -0.000000 0.000000 1.000000
vn -0.000000 0.000000 1.000000
vn -0.000000 0.000000 1.000000
vn 0.000000 0.000000 1.000000
vn 0.000000 0.000000 1.000000
vn 0.000000 0.000000 1.000000
vn 0.000000 0.000000 1.000000
vn 0.000000 0.000000 -1.000000
vn 0.000000 0.000000 -1.000000
vn 0.000000 0.000000 -1.000000
vn 0.000000 0.000000 -1.000000
vn 0.000000 0.000000 -1.000000
vn 0.000000 0.000000 -1.000000
vn 0.000000 0.000000 -1.000000
vn 0.000000 0.000000 -1.000000
vn 0.000047 1.000000 0.000000
vn 0.000047 1.000000 0.000000
vn 0.000047 1.000000 0.000000
vn 0.000047 1.000000 0.000000
vn -0.999989 0.004746 0.000000
vn -0.999989 0.004746 0.000000
vn -0.999989 0.004746 0.000000
vn -0.999989 0.004746 0.000000
vn -0.000048 -1.000000 0.000000
vn -0.000048 -1.000000 0.000000
vn -0.000048 -1.000000 0.000000
vn -0.000048 -1.000000 0.000000
vn 0.999999 0.001641 0.000000
vn 0.999999 0.001641 0.000000
vn 0.999999 0.001641 0.000000
vn 0.999999 0.001641 0.000000
vn -0.999989 0.004746 0.000000
vn -0.999989 0.004746 0.000000
vn -0.999989 0.004746 0.000000
vn -0.999989 0.004746 0.000000
vn 0.000047 1.000000 0.000000
vn 0.000047 1.000000 0.000000
vn 0.000047 1.000000 0.000000
vn 0.000047 1.000000 0.000000
vn 0.999999 0.001641 0.000000
vn 0.999999 0.001641 0.000000
vn 0.999999 0.001641 0.000000
vn 0.999999 0.001641 0.000000
vn -0.000048 -1.000000 0.000000
vn -0.000048 -1.000000 0.000000
vn -0.000048 -1.000000 0.000000
vn -0.000048 -1.000000 0.000000
vn -0.999989 0.004746 0.000000
vn -0.999989 0.004746 0.000000
vn 0.000047 1.000000 0.000000
vn 0.000047 1.000000 0.000000
vn 0.000047 1.000000 0.000000
vn 0.000047 1.000000 0.000000
vn 0.999999 0.001641 0.000000
vn 0.999999 0.001641 0.000000
vn -0.000048 -1.000000 0.000000
vn -0.000048 -1.000000 0.000000
vn -0.000048 -1.000000 0.000000
vn -0.000048 -1.000000 0.000000
vn 0.999999 0.001641 0.000000
vn 0.999999 0.001641 0.000000
vn 0.000047 1.000000 0.000000
vn 0.000047 1.000000 0.000000
vn 0.000047 1.000000 0.000000
vn 0.000047 1.000000 0.000000
vn -0.999989 0.004746 0.000000
vn -0.999989 0.004746 0.000000
vn -0.000048 -1.000000 0.000000
vn -0.000048 -1.000000 0.000000
vn -0.000048 -1.000000 0.000000
vn -0.000048 -1.000000 0.000000
vn -0.999989 0.004746 0.000000
vn -0.999989 0.004746 0.000000
vn -0.000048 -1.000000 0.000000
vn -0.000048 -1.000000 0.000000
vn -0.000048 -1.000000 0.000000
vn -0.000048 -1.000000 0.000000
vn 0.999999 0.001641 0.000000
vn 0.999999 0.001641 0.000000
vn 0.000047 1.000000 0.000000
vn 0.000047 1.000000 0.000000
vn 0.000047 1.000000 0.000000
vn 0.000047 1.000000 0.000000
vn 0.000047 1.000000 0.000000
vn 0.000047 1.000000 0.000000
vn 0.000047 1.000000 0.000000
vn 0.000047 1.000000 0.000000
vn 0.999999 0.001641 0.000000
vn 0.999999 0.001641 0.000000
vn -0.000048 -1.000000 0.000000
vn -0.000048 -1.000000 0.000000
vn -0.000048 -1.000000 0.000000
vn -0.000048 -1.000000 0.000000
vn -0.999989 0.004746 0.000000
vn -0.999989 0.004746 0.000000
vn 0.818159 0.574993 0.000000
vn 0.818159 0.574993 0.000000
vn 0.818159 0.574993 0.000000
vn 0.818159 0.574993 0.000000
vn 0.000005 0.112303 -0.993674
vn 0.000005 0.112303 -0.993674
vn 0.000005 0.112303 -0.993674
vn 0.000005 0.112303 -0.993674
vn -0.818105 0.575069 0.000000
vn -0.818105 0.575069 0.000000
vn -0.818105 0.575069 0.000000
vn -0.818105 0.575069 0.000000
vn 0.000005 0.112302 0.993674
vn 0.000005 0.112302 0.993674
vn 0.000005 0.112302 0.993674
vn 0.000005 0.112302 0.993674
vn 0.817667 -0.575691 0.000000
vn 0.817667 -0.575691 0.000000
vn 0.817667 -0.575691 0.000000
vn 0.817667 -0.575691 0.000000
vn -0.000005 -0.112302 0.993674
vn -0.000005 -0.112302 0.993674
vn -0.000005 -0.112302 0.993674
vn -0.000005 -0.112302 0.993674
vn -0.817721 -0.575615 0.000000
vn -0.817721 -0.575615 0.000000
vn -0.817721 -0.575615 0.000000
vn -0.817721 -0.575615 0.000000
vn -0.000005 -0.112302 -0.993674
vn -0.000005 -0.112302 -0.993674
vn -0.000005 -0.112302 -0.993674
vn -0.000005 -0.112302 -0.993674
vn 0.818159 0.574992 0.000000
vn 0.818159 0.574992 0.000000
vn 0.818159 0.574992 0.000000
vn 0.818159 0.574992 0.000000
vn 0.000006 0.112302 -0.993674
vn 0.000006 0.112302 -0.993674
vn 0.000006 0.112302 -0.993674
vn 0.000006 0.112302 -0.993674
vn -0.818109 0.575063 0.000000
vn -0.818109 0.575063 0.000000
vn -0.818109 0.575063 0.000000
vn -0.818109 0.575063 0.000000
vn 0.000006 0.112302 0.993674
vn 0.000006 0.112302 0.993674
vn 0.000006 0.112302 0.993674
vn 0.000006 0.112302 0.993674
vn -0.817721 -0.575615 0.000000
vn -0.817721 -0.575615 0.000000
vn -0.817721 -0.575615 0.000000
vn -0.817721 -0.575615 0.000000
vn -0.000006 -0.112302 -0.993674
vn -0.000006 -0.112302 -0.993674
vn -0.000006 -0.112302 -0.993674
vn -0.000006 -0.112302 -0.993674
vn 0.817671 -0.575687 0.000000
vn 0.817671 -0.575687 0.000000
vn 0.817670 -0.575687 0.000000
vn 0.817670 -0.575687 0.000000
vn -0.000006 -0.112302 0.993674
vn -0.000006 -0.112302 0.993674
vn -0.000006 -0.112302 0.993674
vn -0.000006 -0.112302 0.993674
vn -0.999887 0.015068 0.000000
vn -0.999887 0.015068 0.000000
vn -0.999887 0.015068 0.000000
vn -0.999887 0.015068 0.000000
vn 0.046243 -0.998930 0.000000
vn 0.046243 -0.998930 0.000000
vn 0.046243 -0.998930 0.000000
vn 0.046243 -0.998930 0.000000
vn 1.000000 0.000614 0.000000
vn 1.000000 0.000614 0.000000
vn 1.000000 0.000614 0.000000
vn 1.000000 0.000614 0.000000
vn 0.000047 1.000000 0.000000
vn 0.000047 1.000000 0.000000
vn 0.000047 1.000000 0.000000
vn 0.000047 1.000000 0.000000
vn 0.999949 -0.010106 0.000000
vn 0.999949 -0.010106 0.000000
vn 0.999949 -0.010106 0.000000
vn 0.999949 -0.010106 0.000000
vn 0.000000 1.000000 0.000000
vn 0.000000 1.000000 0.000000
vn 0.000000 1.000000 0.000000
vn 0.000000 1.000000 0.000000
vn -0.999832 -0.018350 0.000000
vn -0.999832 -0.018350 0.000000
vn -0.999832 -0.018350 0.000000
vn -0.999832 -0.018350 0.000000
vn -0.000048 -1.000000 0.000000
vn -0.000048 -1.000000 0.000000
vn -0.000048 -1.000000 0.000000
vn -0.000048 -1.000000 0.000000
vn 0.000047 1.000000 0.000000
vn 0.000047 1.000000 0.000000
vn 0.000047 1.000000 0.000000
vn 0.000047 1.000000 0.000000
vn 1.000000 0.000613 0.000000
vn 1.000000 0.000613 0.000000
vn 1.000000 0.000613 0.000000
vn 1.000000 0.000613 0.000000
vn 0.046243 -0.998930 0.000000
vn 0.046243 -0.998930 0.000000
vn 0.046243 -0.998930 0.000000
vn 0.046243 -0.998930 0.000000
vn -0.999887 0.015068 0.000000
vn -0.999887 0.015068 0.000000
vn -0.999887 0.015068 0.000000
vn -0.999887 0.015068 0.000000
vn -0.000048 -1.000000 0.000000
vn -0.000048 -1.000000 0.000000
vn -0.000048 -1.000000 0.000000
vn -0.000048 -1.000000 0.000000
vn -0.999832 -0.018350 0.000000
vn -0.999832 -0.018350 0.000000
vn -0.999832 -0.018350 0.000000
vn -0.999832 -0.018350 0.000000
vn 0.000000 1.000000 0.000000
vn 0.000000 1.000000 0.000000
vn 0.000000 1.000000 0.000000
vn 0.000000 1.000000 0.000000
vn 0.999949 -0.010106 0.000000
vn 0.999949 -0.010106 0.000000
vn 0.999949 -0.010106 0.000000
vn 0.999949 -0.010106 0.000000
s 1
g door_geo frontWall_grp walls_geo building_grp
usemtl initialShadingGroup
f 2/43/1 1/9/2 41/26/3 40/64/4
s 2
f 1/9/5 6/7/6 42/3/7 41/26/8
f 6/7/6 5/10/9 9/14/10 8/8/11
s 3
f 5/11/12 4/58/13 10/69/14 9/13/15
s 2
f 8/8/11 7/12/16 47/28/17 46/4/18
s 4
f 7/12/19 12/65/20 48/76/21 47/28/22
f 14/46/23 13/15/24 29/22/25 28/60/26
s 6
f 13/15/27 18/5/28 30/1/29 29/22/30
f 18/5/28 17/16/31 21/20/32 20/6/33
s 3
f 17/17/34 16/57/35 22/73/36 21/19/37
s 6
f 20/6/33 19/18/38 35/24/39 34/2/40
s 1
f 19/18/41 24/61/42 36/53/43 35/24/44
s 9
f 26/50/45 25/21/46 33/23/47 32/55/48
s 6
f 25/21/49 30/1/29 34/2/40 33/23/50
s 9
f 38/79/51 37/25/52 45/27/53 44/56/54
s 2
f 37/25/55 42/3/7 46/4/18 45/27/56
s 6
f 18/5/28 20/6/33 34/2/40 30/1/29
s 2
f 6/7/6 8/8/11 46/4/18 42/3/7
f 5/10/9 6/7/6 1/9/5 49/29/57
s 1
f 1/9/2 2/43/1 3/42/58 49/29/59
s 3
f 3/42/60 4/58/13 5/11/12 49/30/61
s 4
f 11/67/62 12/65/20 7/12/19 50/31/63
s 2
f 7/12/16 8/8/11 9/14/10 50/31/64
s 3
f 9/13/15 10/69/14 11/67/65 50/32/66
s 6
f 17/16/31 18/5/28 13/15/27 51/33/67
s 4
f 13/15/24 14/46/23 15/47/68 51/33/69
s 3
f 15/47/70 16/57/35 17/17/34 51/34/71
s 1
f 23/71/72 24/61/42 19/18/41 52/35/73
s 6
f 19/18/38 20/6/33 21/20/32 52/35/74
s 3
f 21/19/37 22/73/36 23/71/75 52/36/76
s 6
f 29/22/30 30/1/29 25/21/49 53/37/77
s 9
f 25/21/46 26/50/45 27/48/78 53/37/79
s 4
f 27/48/80 28/60/26 29/22/25 53/37/81
s 1
f 35/24/44 36/53/43 31/52/82 54/38/83
s 9
f 31/52/84 32/55/48 33/23/47 54/38/85
s 6
f 33/23/50 34/2/40 35/24/39 54/38/86
s 2
f 41/26/8 42/3/7 37/25/55 55/39/87
s 9
f 37/25/52 38/79/51 39/81/88 55/39/89
s 1
f 39/81/90 40/64/4 41/26/3 55/39/91
s 4
f 47/28/22 48/76/21 43/77/92 56/40/93
s 9
f 43/77/94 44/56/54 45/27/53 56/40/95
s 2
f 45/27/56 46/4/18 47/28/17 56/40/96
s off
f 81/99/97 82/105/98 83/103/99 84/101/100
s 3
f 58/82/101 57/88/102 59/44/103 60/74/104
s 1
f 60/74/105 59/44/106 62/63/107 61/72/108
f 61/72/108 62/63/107 79/80/109 80/62/110
s 3
f 63/45/111 64/70/112 68/86/113 67/84/114
s 4
f 64/41/115 63/45/116 66/59/117 65/68/118
f 65/68/118 66/59/117 69/49/119 70/66/120
f 70/66/120 69/49/119 71/51/121 72/75/122
s 9
f 72/75/123 71/51/124 74/90/125 73/96/126
s off
f 86/109/127 85/107/128 87/113/129 88/111/130
s 9
f 76/94/131 75/92/132 77/54/133 78/78/134
s 1
f 78/78/135 77/54/136 80/62/110 79/80/109
s 3
f 4/58/13 3/42/60 59/44/103 57/88/102
s 1
f 3/42/58 2/43/1 62/63/107 59/44/106
s 4
f 66/59/117 63/45/116 15/47/68 14/46/23
s 3
f 63/45/111 67/84/114 16/57/35 15/47/70
s 4
f 28/60/26 27/48/80 71/51/121 69/49/119
s 9
f 27/48/78 26/50/45 74/90/125 71/51/124
f 32/55/48 31/52/84 77/54/133 75/92/132
s 1
f 31/52/82 36/53/43 80/62/110 77/54/136
s off
f 122/130/137 121/131/138 123/132/139 124/133/140
f 125/134/141 126/135/142 127/136/143 128/137/144
f 130/138/145 129/139/146 131/140/147 132/141/148
f 134/142/149 133/143/150 135/144/151 136/145/152
s 4
f 66/59/117 14/46/23 28/60/26 69/49/119
s 1
f 24/61/42 61/72/108 80/62/110 36/53/43
f 62/63/107 2/43/1 40/64/4 79/80/109
s 4
f 12/65/20 65/68/118 70/66/120 48/76/21
f 12/65/20 11/67/62 64/70/115 65/68/118
s 3
f 11/67/65 10/69/14 68/86/113 64/70/112
s 1
f 24/61/42 23/71/72 60/74/105 61/72/108
s 3
f 23/71/75 22/73/36 58/82/101 60/74/104
s 4
f 70/66/120 72/75/122 43/77/92 48/76/21
s 9
f 72/75/123 73/96/126 44/56/54 43/77/94
f 76/94/131 78/78/134 39/81/88 38/79/51
s 1
f 78/78/135 79/80/109 40/64/4 39/81/90
s off
f 105/114/153 106/115/154 107/116/155 108/117/156
s 11
f 90/85/157 89/98/158 92/100/159 91/83/160
s off
f 110/118/161 109/119/162 111/120/163 112/121/164
s 12
f 93/89/165 94/102/166 96/104/167 95/87/168
s 13
f 97/106/169 98/95/170 103/97/171 104/112/172
s off
f 114/122/173 113/123/174 115/124/175 116/125/176
s 14
f 99/93/177 100/108/178 102/110/179 101/91/180
s off
f 118/126/181 117/127/182 119/128/183 120/129/184
s 11
f 57/88/185 58/82/186 90/85/157 91/83/160
s off
f 58/82/187 67/84/188 95/87/189 90/85/190
s 12
f 67/84/191 68/86/192 93/89/165 95/87/168
s off
f 68/86/193 57/88/194 91/83/195 93/89/196
s 14
f 73/96/197 74/90/198 99/93/177 101/91/180
s off
f 74/90/199 75/92/200 98/95/201 99/93/202
s 13
f 75/92/203 76/94/204 103/97/171 98/95/170
s off
f 76/94/205 73/96/206 101/91/207 103/97/208
s 11
f 92/100/159 89/98/158 82/105/209 81/99/210
s off
f 94/102/211 92/100/212 81/99/213 84/101/214
s 12
f 96/104/167 94/102/166 84/101/215 83/103/216
s off
f 89/98/217 96/104/218 83/103/219 82/105/220
f 100/108/221 97/106/222 87/113/223 85/107/224
s 14
f 102/110/179 100/108/178 85/107/225 86/109/226
s off
f 104/112/227 102/110/228 86/109/229 88/111/230
s 13
f 97/106/169 104/112/172 88/111/231 87/113/232
s off
f 89/98/233 90/85/234 106/115/235 105/114/236
f 90/85/237 95/87/238 107/116/239 106/115/240
f 95/87/241 96/104/242 108/117/243 107/116/244
f 96/104/245 89/98/246 105/114/247 108/117/248
f 91/83/249 92/100/250 109/119/251 110/118/252
f 92/100/253 94/102/254 111/120/255 109/119/256
f 94/102/257 93/89/258 112/121/259 111/120/260
f 93/89/261 91/83/262 110/118/263 112/121/264
f 98/95/265 97/106/266 113/123/267 114/122/268
f 97/106/269 100/108/270 115/124/271 113/123/272
f 100/108/273 99/93/274 116/125/275 115/124/276
f 99/93/277 98/95/278 114/122/279 116/125/280
f 101/91/281 102/110/282 117/127/283 118/126/284
f 102/110/285 104/112/286 119/128/287 117/127/288
f 104/112/289 103/97/290 120/129/291 119/128/292
f 103/97/293 101/91/294 118/126/295 120/129/296
f 74/90/297 26/50/298 121/131/299 122/130/300
f 26/50/301 32/55/302 123/132/303 121/131/304
f 32/55/305 75/92/306 124/133/307 123/132/308
f 75/92/309 74/90/310 122/130/311 124/133/312
f 76/94/313 38/79/314 126/135/315 125/134/316
f 38/79/317 44/56/318 127/136/319 126/135/320
f 44/56/321 73/96/322 128/137/323 127/136/324
f 73/96/325 76/94/326 125/134/327 128/137/328
f 67/84/329 58/82/330 129/139/331 130/138/332
f 58/82/333 22/73/334 131/140/335 129/139/336
f 22/73/337 16/57/338 132/141/339 131/140/340
f 16/57/341 67/84/342 130/138/343 132/141/344
f 57/88/345 68/86/346 133/143/347 134/142/348
f 68/86/349 10/69/350 135/144/351 133/143/352
f 10/69/353 4/58/354 136/145/355 135/144/356
f 4/58/357 57/88/358 134/142/359 136/145/360
