# This file uses centimeters as units for non-parametric coordinates.

mtllib walls.mtl
g default
v 32.033039 183.094864 -344.849060
v -170.668533 153.037857 -344.849060
v -77.162788 171.419174 -344.849060
v -27.513147 177.377609 -344.849060
v -124.477425 162.240707 -344.849091
v -125.042297 80.118355 -344.849060
v 32.033043 90.029892 -344.849060
v -27.885998 87.171242 -344.849060
v -76.486710 84.192024 -344.849060
v -173.479279 75.001389 -344.849060
v 32.033043 -0.000000 -344.849060
v -28.258841 0.000000 -344.849060
v -76.893593 0.000000 -344.849060
v -125.136948 0.000000 -344.849060
v -174.320648 0.000000 -344.849060
v 150.200912 0.000000 -344.849060
v 150.200912 90.029892 -344.849060
v -247.402817 129.317795 -344.849060
v -247.402817 63.141346 -344.849060
v 150.200912 183.094864 -344.849060
v -247.402817 0.000000 -344.849060
v 150.200912 183.094864 -344.849060
v 150.200912 183.094864 235.102875
v -247.402817 129.317795 -344.849060
v -247.402817 129.317795 235.102875
v 150.200912 183.094864 -286.829620
v 150.200912 183.094864 -54.872879
v 150.200912 183.094864 177.083801
v -247.402817 129.317795 177.083801
v -247.402817 129.317795 -54.872879
v -247.402817 129.317795 -286.829620
v 150.200912 90.029892 235.102875
v 150.200912 90.029892 177.083801
v 150.200912 90.029892 -54.872879
v 150.200912 90.029892 -286.829620
v 150.200912 90.029892 -344.849060
v -247.402817 63.141346 235.102875
v -247.402817 63.141346 177.083801
v -247.402817 63.141346 -54.872879
v -247.402817 63.141346 -286.829620
v -247.402817 63.141346 -344.849060
v 150.200912 0.000000 -344.849060
v 150.200912 -0.000000 -54.872879
v 150.200912 0.000000 177.083801
v 150.200912 0.000000 -286.829620
v 150.200912 -0.000000 235.102875
v -247.402817 -0.000000 235.102875
v -247.402817 -0.000000 177.083801
v -247.402817 0.000000 -54.872879
v -247.402817 0.000000 -286.829620
v -247.402817 0.000000 -344.849060
vt 0.750000 1.000000
vt 0.500000 1.000000
vt 0.500000 0.750000
vt 0.375000 1.000000
vt 0.750000 0.750000
vt 0.443072 0.900010
vt 0.386145 1.000000
vt 1.000000 1.000000
vt 0.654384 1.000000
vt 0.375000 0.500000
vt 0.327192 0.688867
vt 0.577254 1.000000
vt 0.288627 0.843576
vt 0.426801 0.893912
vt 0.345634 0.967179
vt 0.569411 0.979698
vt 0.303926 0.848997
vt 0.500000 0.500000
vt 0.000000 1.000000
vt 0.000000 0.000000
vt 0.000000 0.377735
vt 0.000000 0.687151
vt 0.038440 0.718295
vt 0.500000 0.500000
vt 0.500000 0.800020
vt 0.507968 0.820645
vt 0.500000 1.000000
vt 0.500000 1.000000
vt 0.500000 1.000000
vt 0.899959 1.000000
vt 0.500000 0.800021
vt 0.500000 1.000000
vt 0.200083 0.500000
vt 1.000000 0.500000
vt 1.000000 1.000000
vt 0.200083 1.000000
vt 0.000000 0.500000
vt 0.599937 0.699979
vt 0.799917 1.000000
vt 0.000000 1.000000
vt 0.500000 1.000000
vt 1.000000 1.000000
vt 0.500000 0.750000
vt 0.500000 1.000000
vt 0.750000 0.750000
vt 1.000000 1.000000
vt 0.000000 0.500000
vt 0.000000 1.000000
vt 0.000000 1.000000
vt 0.100041 1.000000
vt 0.500000 1.000000
vt 0.500000 0.600042
vt 0.500000 0.500000
vt 0.000000 0.000000
vt 0.200083 -0.000000
vt 1.000000 0.000000
vt 0.000000 0.000000
vt 0.399958 0.399958
vt 0.500000 0.500000
vn 0.000000 0.000000 1.000000
vn 0.000000 0.000000 1.000000
vn 0.000000 0.000000 1.000000
vn 0.000000 0.000000 1.000000
vn -0.000000 0.000000 1.000000
vn 0.000000 0.000000 1.000000
vn 0.000000 0.000000 1.000000
vn -0.000000 0.000000 1.000000
vn -0.000000 0.000000 1.000000
vn -0.000000 0.000000 1.000000
vn -0.000000 0.000000 1.000000
vn -0.000000 0.000000 1.000000
vn 0.000001 0.000000 1.000000
vn 0.000001 0.000000 1.000000
vn 0.000000 0.000000 1.000000
vn 0.000000 0.000000 1.000000
vn 0.000000 0.000000 1.000000
vn 0.000000 0.000000 1.000000
vn 0.000000 0.000000 1.000000
vn -0.000000 0.000000 1.000000
vn 0.000000 0.000000 1.000000
vn 0.000000 0.000000 1.000000
vn 0.000000 0.000000 1.000000
vn 0.000001 0.000000 1.000000
vn -1.000000 0.000000 0.000000
vn -1.000000 0.000000 0.000000
vn -1.000000 0.000000 0.000000
vn -1.000000 0.000000 0.000000
vn -1.000000 0.000000 0.000000
vn -1.000000 0.000000 0.000000
vn 1.000000 0.000000 0.000000
vn 1.000000 0.000000 0.000000
vn 1.000000 0.000000 0.000000
vn 1.000000 0.000000 0.000000
vn 1.000000 0.000000 0.000000
vn 1.000000 0.000000 0.000000
vn -1.000000 0.000000 0.000000
vn -1.000000 0.000000 0.000000
vn -1.000000 0.000000 0.000000
vn -1.000000 0.000000 0.000000
vn 1.000000 0.000000 0.000000
vn 1.000000 0.000000 0.000000
vn 1.000000 0.000000 0.000000
vn 1.000000 0.000000 0.000000
vn -1.000000 0.000000 0.000000
vn -1.000000 0.000000 0.000000
vn -1.000000 0.000000 0.000000
vn -1.000000 0.000000 0.000000
vn -1.000000 0.000000 0.000000
vn 1.000000 0.000000 0.000000
vn 1.000000 0.000000 0.000000
vn 1.000000 0.000000 0.000000
vn 1.000000 0.000000 0.000000
vn 1.000000 0.000000 0.000000
s 1
g wallBack_geo
usemtl initialShadingGroup
f 11/1/1 16/2/2 17/3/3 7/4/4
s 2
f 19/5/5 10/6/6 2/7/7 18/8/8
s 1
f 12/9/9 11/1/1 7/10/4 8/11/10
f 13/12/11 12/9/9 8/11/10 9/13/12
s 2
f 10/6/6 6/14/13 5/15/14 2/7/7
s 1
f 14/16/15 13/12/11 9/13/12 6/17/16
f 7/4/4 17/3/3 20/18/17 1/19/18
f 8/11/10 7/10/4 1/20/18 4/21/19
f 9/13/12 8/11/10 4/21/19 3/22/20
f 6/17/16 9/13/12 3/22/20 5/23/21
s 2
f 21/24/22 15/25/23 10/6/6 19/5/5
f 15/25/23 14/26/24 6/14/13 10/6/6
s 3
f 33/27/25 34/28/26 43/29/27 44/30/28
f 34/28/26 35/31/29 45/32/30 43/29/27
s 4
f 38/33/31 39/34/32 30/35/33 29/36/34
f 39/37/32 40/38/35 31/39/36 30/40/33
s 3
f 32/41/37 33/27/25 44/30/28 46/42/38
f 35/31/29 36/43/39 42/44/40 45/32/30
s 4
f 40/38/35 41/45/41 24/46/42 31/39/36
f 37/47/43 38/33/31 29/36/34 25/48/44
s 3
f 23/49/45 28/50/46 33/27/25 32/41/37
f 28/50/46 27/51/47 34/28/26 33/27/25
f 27/51/47 26/52/48 35/31/29 34/28/26
f 26/52/48 22/53/49 36/43/39 35/31/29
s 4
f 47/54/50 48/55/51 38/33/31 37/47/43
f 48/55/51 49/56/52 39/34/32 38/33/31
f 49/57/52 50/58/53 40/38/35 39/37/32
f 50/58/53 51/59/54 41/45/41 40/38/35
