# This file uses centimeters as units for non-parametric coordinates.

mtllib windows.mtl
g default
v 36.632034 132.046738 234.495483
v 36.670937 48.013042 234.495483
v 131.527069 48.013042 234.495483
v 131.527069 132.046738 234.495483
vt 0.381125 0.991715
vt 0.551461 0.995071
vt 0.526049 0.934406
vt 0.439603 0.819634
vn 0.000000 0.000000 1.000000
vn 0.000000 0.000000 1.000000
vn 0.000000 0.000000 1.000000
vn 0.000000 0.000000 1.000000
s off
g windowR_geo frontWall_grp walls_geo building_grp
usemtl initialShadingGroup
f 1/1/1 2/2/2 3/3/3 4/4/4
g default
v -77.039917 126.101669 234.495483
v -124.314430 121.951210 234.495483
v -124.477425 34.015682 234.495483
v -77.162788 34.015686 234.495483
v -169.048889 116.828239 234.495483
v -169.048889 34.015682 234.495483
v -32.349747 34.015686 234.495483
v -32.301991 128.981979 234.495483
vt 0.438118 0.921757
vt 0.150259 0.768878
vt 0.306464 0.850290
vt 0.445994 0.920333
vt 0.426091 0.894670
vt 0.387581 0.935839
vt 0.466819 0.956856
vt 0.475020 0.848794
vt 0.481742 0.849728
vt 0.171698 0.564179
vn 0.000000 0.000000 1.000000
vn 0.000000 0.000000 1.000000
vn -0.000000 0.000000 1.000000
vn -0.000000 0.000000 1.000000
vn 0.000000 0.000000 1.000000
vn 0.000000 0.000000 1.000000
vn 0.000000 0.000000 1.000000
vn 0.000000 0.000000 1.000000
s 1
g frontWall_grp walls_geo building_grp windowL_geo
usemtl initialShadingGroup
f 8/5/5 5/6/6 6/7/7 7/8/8
f 7/9/8 6/10/7 9/11/9 10/12/10
f 11/13/11 12/14/12 5/6/6 8/5/5
