# This file uses centimeters as units for non-parametric coordinates.

mtllib photo.mtl
g default
v -9.562998 -0.000000 11.298623
v 9.562998 -0.000000 11.298623
v -9.562998 0.000000 -11.298623
v 9.562998 0.000000 -11.298623
v -9.562998 0.231916 11.298623
v 9.562998 0.231916 11.298623
v 9.562998 0.231916 -11.298623
v -9.562998 0.231916 -11.298623
vt 0.676167 0.707424
vt 0.676167 0.755448
vt 0.671557 0.755448
vt 0.671557 0.707424
vt 0.685911 0.707424
vt 0.685911 0.755448
vt 0.681301 0.755448
vt 0.681301 0.707424
vt 0.012781 0.991048
vt 0.012781 0.507396
vt 0.496432 0.507396
vt 0.496432 0.991048
vt 0.500770 0.496134
vt 0.500770 0.012482
vt 0.984422 0.012482
vt 0.984422 0.496134
vt 0.671295 0.707424
vt 0.671295 0.755448
vt 0.666685 0.755448
vt 0.666685 0.707424
vt 0.676429 0.755448
vt 0.676429 0.707424
vt 0.681039 0.707424
vt 0.681039 0.755448
vn 0.000000 1.000000 0.000000
vn 0.000000 1.000000 0.000000
vn 0.000000 1.000000 0.000000
vn 0.000000 1.000000 0.000000
vn 0.000000 -1.000000 -0.000000
vn 0.000000 -1.000000 -0.000000
vn 0.000000 -1.000000 -0.000000
vn 0.000000 -1.000000 -0.000000
vn 0.000000 0.000000 1.000000
vn 0.000000 0.000000 1.000000
vn 0.000000 0.000000 1.000000
vn 0.000000 0.000000 1.000000
vn 1.000000 0.000000 0.000000
vn 1.000000 0.000000 0.000000
vn 1.000000 0.000000 0.000000
vn 1.000000 0.000000 0.000000
vn 0.000000 0.000000 -1.000000
vn 0.000000 0.000000 -1.000000
vn 0.000000 0.000000 -1.000000
vn 0.000000 0.000000 -1.000000
vn -1.000000 0.000000 0.000000
vn -1.000000 0.000000 0.000000
vn -1.000000 0.000000 0.000000
vn -1.000000 0.000000 0.000000
s off
g pPlane1
usemtl initialShadingGroup
f 5/9/1 6/10/2 7/11/3 8/12/4
f 1/13/5 3/14/6 4/15/7 2/16/8
f 1/17/9 2/18/10 6/19/11 5/20/12
f 2/1/13 4/2/14 7/3/15 6/4/16
f 4/21/17 3/22/18 8/23/19 7/24/20
f 3/5/21 1/6/22 5/7/23 8/8/24
