# This file uses centimeters as units for non-parametric coordinates.

mtllib trash_can.mtl
g default
v -22.723227 88.490646 12.337020
v -20.023727 88.663643 13.267179
v -19.828423 90.663925 11.829535
v -19.826365 91.440010 9.402431
v -22.482368 90.534988 9.546549
v -23.837770 88.313629 10.079172
v 17.542820 88.490646 12.337020
v 18.657364 88.313629 10.079172
v 17.294451 90.536011 9.534852
v 14.622324 91.440010 9.381963
v 14.635508 90.664345 11.823322
v 14.843333 88.663643 13.267179
v -22.737610 88.186104 -18.104532
v -23.857891 88.189415 -15.761305
v -22.461880 90.508560 -15.541393
v -19.743942 91.440010 -15.513823
v -19.773508 90.508652 -17.866697
v -20.029816 88.189415 -19.075335
v 17.557205 88.186104 -18.104532
v 14.849411 88.189415 -19.075335
v 14.593750 90.508629 -17.866722
v 14.563537 91.440010 -15.513823
v 17.281488 90.508560 -15.541393
v 18.677496 88.189415 -15.761305
v -28.285477 0.000002 18.267069
v -24.457378 0.000002 21.581097
v -27.164253 0.000002 20.610439
v 23.105070 0.000002 18.267069
v 21.983841 0.000002 20.610439
v 19.276974 0.000002 21.581097
v -24.457378 61.577354 -22.908333
v -27.164253 61.577354 -21.937677
v -28.285477 61.577354 -19.594305
v 19.276974 61.577354 -22.908333
v 21.983841 61.577354 -21.937677
v 23.105070 61.577354 -19.594305
v -24.446388 61.577354 21.581097
v -27.161018 61.577354 20.607651
v -28.285477 61.577354 18.257557
v 23.105070 61.577354 18.257557
v 21.980623 61.577354 20.607651
v 19.265984 61.577354 21.581097
v 21.983841 0.000002 -21.937677
v 23.105070 0.000002 -19.594305
v 19.276974 0.000002 -22.908333
v -27.164253 0.000002 -21.937677
v -24.457378 0.000002 -22.908333
v -28.285477 0.000002 -19.594305
v -22.022068 90.223930 11.484661
v 16.836086 90.224762 11.479646
v -22.001078 90.091331 -17.468155
v 16.820942 90.091293 -17.468174
v 21.753239 0.000002 24.100117
v 24.766634 0.000002 23.019539
v 24.766634 55.520462 23.019539
v 21.753239 55.520462 24.100117
v 26.014832 0.000002 20.410803
v 26.014832 55.520462 20.410803
v 26.014832 0.000002 -21.738039
v 24.766634 0.000002 -24.346775
v 24.766634 55.520462 -24.346775
v 26.014832 55.520462 -21.738039
v 21.753239 0.000002 -25.427353
v 21.753239 55.520462 -25.427353
v -26.933643 0.000002 -25.427353
v -29.947046 0.000002 -24.346775
v -29.947046 55.520462 -24.346775
v -26.933643 55.520462 -25.427353
v -31.195240 0.000002 -21.738039
v -31.195240 55.520462 -21.738039
v -26.933643 55.520462 24.100117
v 21.741003 60.160332 24.100117
v -26.921410 60.160332 24.100117
v -26.933643 60.160332 -25.427353
v 21.753239 60.160332 -25.427353
v 26.014832 60.160332 -21.738039
v 26.014832 60.160332 20.400213
v -31.195240 55.520462 20.410803
v -31.195240 60.160332 20.400213
v -31.195240 60.160332 -21.738039
v -26.933643 0.000002 24.100117
v -31.195240 0.000002 20.410803
v -29.947046 0.000002 23.019539
v -29.947046 55.520462 23.019539
v -29.943449 60.160332 23.016438
v 24.763054 60.160332 23.016438
v 24.766634 60.160332 -24.346775
v -29.947046 60.160332 -24.346775
vt 0.103023 0.749119
vt 0.102426 0.764761
vt 0.012309 0.708104
vt 0.012309 0.691823
vt 0.109913 0.768450
vt 0.108865 0.755025
vt 0.012309 0.970330
vt 0.102008 0.943776
vt 0.109824 0.942252
vt 0.101996 0.960009
vt 0.012309 0.986564
vt 0.108418 0.955600
vt 0.205664 0.913626
vt 0.206259 0.929268
vt 0.115546 0.986563
vt 0.115546 0.970282
vt 0.213156 0.909856
vt 0.212105 0.923328
vt 0.115546 0.708057
vt 0.205244 0.734611
vt 0.213062 0.736133
vt 0.205234 0.718378
vt 0.115546 0.691823
vt 0.211654 0.722785
vt 0.493984 0.688251
vt 0.493984 0.670176
vt 0.681126 0.670176
vt 0.681126 0.688251
vt 0.493984 0.378184
vt 0.681126 0.378184
vt 0.696761 0.670102
vt 0.696761 0.688227
vt 0.493984 0.360109
vt 0.681126 0.360109
vt 0.696761 0.378184
vt 0.696761 0.360109
vt 0.077427 0.688245
vt 0.077427 0.670174
vt 0.264567 0.670174
vt 0.264567 0.688245
vt 0.077427 0.378179
vt 0.264567 0.378179
vt 0.280206 0.670174
vt 0.280206 0.688245
vt 0.077427 0.360107
vt 0.264567 0.360107
vt 0.280206 0.378252
vt 0.280206 0.360128
vt 0.080493 0.115239
vt 0.080480 0.098427
vt 0.287174 0.098467
vt 0.287095 0.115383
vt 0.064563 0.114241
vt 0.067324 0.100816
vt 0.079309 0.088466
vt 0.288420 0.088466
vt 0.303120 0.114321
vt 0.300370 0.100849
vt 0.286742 0.287853
vt 0.080987 0.287853
vt 0.064687 0.288044
vt 0.063119 0.094909
vt 0.052784 0.030872
vt 0.314945 0.030872
vt 0.304610 0.094909
vt 0.303043 0.288044
vt 0.080810 0.304150
vt 0.286924 0.304150
vt 0.067450 0.301392
vt 0.036504 0.037614
vt 0.037941 0.013418
vt 0.329787 0.013418
vt 0.331225 0.037614
vt 0.300280 0.301392
vt 0.079273 0.312526
vt 0.288457 0.312526
vt 0.063033 0.305800
vt 0.019816 0.020927
vt 0.347913 0.020927
vt 0.304696 0.305800
vt 0.029760 0.053895
vt 0.012309 0.039052
vt 0.337968 0.053895
vt 0.355420 0.039052
vt 0.029760 0.316121
vt 0.012309 0.330970
vt 0.337968 0.316121
vt 0.355420 0.330970
vt 0.036484 0.332355
vt 0.019795 0.349045
vt 0.331244 0.332355
vt 0.347934 0.349045
vt 0.052719 0.339077
vt 0.037868 0.356530
vt 0.315010 0.339077
vt 0.329861 0.356530
vt 0.386028 0.037596
vt 0.402262 0.030872
vt 0.664553 0.030872
vt 0.680787 0.037596
vt 0.687511 0.053830
vt 0.687511 0.316122
vt 0.680787 0.332356
vt 0.664553 0.339081
vt 0.402262 0.339081
vt 0.386028 0.332356
vt 0.379303 0.316122
vt 0.379303 0.053830
vt 0.369339 0.020907
vt 0.387411 0.013420
vt 0.679404 0.013420
vt 0.697478 0.020907
vt 0.704963 0.038978
vt 0.704963 0.330973
vt 0.697478 0.349045
vt 0.679404 0.356531
vt 0.387411 0.356531
vt 0.369339 0.349045
vt 0.361853 0.330973
vt 0.361853 0.038978
vt 0.220358 0.734610
vt 0.220372 0.718369
vt 0.310054 0.691821
vt 0.310054 0.708055
vt 0.220358 0.943793
vt 0.310054 0.970348
vt 0.220372 0.960034
vt 0.310054 0.986582
vt 0.702258 0.378182
vt 0.702258 0.360109
vt 0.889397 0.360109
vt 0.889397 0.378182
vt 0.905036 0.360131
vt 0.905036 0.378256
vt 0.889397 0.670176
vt 0.702258 0.670176
vt 0.905036 0.670104
vt 0.702258 0.688249
vt 0.889397 0.688249
vt 0.905036 0.688227
vt 0.488486 0.360105
vt 0.488486 0.378180
vt 0.301348 0.378180
vt 0.301348 0.360105
vt 0.301348 0.670172
vt 0.488486 0.670172
vt 0.285706 0.378180
vt 0.285706 0.360105
vt 0.285706 0.670172
vt 0.488486 0.688247
vt 0.301348 0.688247
vt 0.285706 0.688247
vn -0.018921 0.315143 0.948856
vn -0.320834 0.337929 0.884799
vn -0.322838 0.325877 0.888583
vn -0.025115 0.297113 0.954512
vn -0.867424 0.285312 0.407643
vn -0.981129 0.191702 0.025226
vn -0.983324 0.176708 0.042998
vn -0.869955 0.270501 0.412321
vn -0.024800 0.999310 0.027645
vn -0.015349 0.953267 0.301738
vn 0.015662 0.953311 0.301586
vn 0.024777 0.999310 0.027664
vn -0.014700 0.583697 0.811839
vn 0.018935 0.315104 0.948868
vn 0.014754 0.583822 0.811748
vn -0.854128 0.519815 0.016071
vn -0.855361 0.517464 -0.024251
vn -0.981133 0.191206 -0.028619
vn -0.320217 0.947185 0.017392
vn -0.024179 0.999145 -0.033534
vn -0.320867 0.946847 -0.022937
vn 0.981122 0.191737 0.025237
vn 0.867387 0.285517 0.407577
vn 0.869956 0.270500 0.412319
vn 0.983324 0.176708 0.042997
vn 0.320806 0.338091 0.884747
vn 0.025115 0.297113 0.954512
vn 0.322838 0.325877 0.888583
vn 0.319081 0.947564 0.017608
vn 0.319911 0.947175 -0.022727
vn 0.024172 0.999145 -0.033536
vn 0.853498 0.520848 0.016075
vn 0.981118 0.191281 -0.028612
vn 0.854825 0.518356 -0.024123
vn -0.019421 0.167857 -0.985620
vn -0.014382 0.461783 -0.886877
vn 0.014386 0.461780 -0.886878
vn 0.019420 0.167860 -0.985620
vn -0.016229 0.930619 -0.365630
vn 0.016235 0.930620 -0.365627
vn 0.328927 0.203168 -0.922242
vn 0.331578 0.188324 -0.924441
vn 0.026884 0.146891 -0.988787
vn 0.879824 0.225610 -0.418342
vn 0.984930 0.169091 -0.036342
vn 0.882412 0.207619 -0.422189
vn 0.020896 0.000000 0.999782
vn 0.337545 0.000000 0.941309
vn 0.337545 0.000069 0.941309
vn 0.020904 0.000004 0.999782
vn 0.902061 0.000000 0.431608
vn 0.999611 0.000000 0.027877
vn 0.999611 0.000005 0.027886
vn 0.902061 0.000076 0.431608
vn 0.999611 0.000000 -0.027877
vn 0.902061 0.000000 -0.431608
vn 0.902061 0.000000 -0.431608
vn 0.999611 0.000000 -0.027877
vn 0.337546 0.000000 -0.941309
vn 0.020896 0.000000 -0.999782
vn 0.020896 0.000000 -0.999782
vn 0.337546 0.000000 -0.941309
vn -0.020896 0.000000 -0.999782
vn -0.337545 0.000000 -0.941309
vn -0.337545 0.000000 -0.941309
vn -0.020896 0.000000 -0.999782
vn -0.902062 0.000000 -0.431607
vn -0.999611 0.000000 -0.027877
vn -0.999611 0.000000 -0.027877
vn -0.902062 0.000000 -0.431607
vn -0.020904 0.000004 0.999782
vn 0.020865 0.000055 0.999782
vn -0.020865 0.000055 0.999782
vn -0.020896 0.000000 -0.999782
vn 0.020896 0.000000 -0.999782
vn 0.999611 0.000000 -0.027880
vn 0.999612 0.000064 0.027846
vn -0.999611 0.000005 0.027886
vn -0.999612 0.000064 0.027846
vn -0.999611 0.000000 -0.027880
vn -0.020896 0.000000 0.999782
vn -0.999611 0.000000 0.027877
vn -0.026884 0.146891 -0.988787
vn -0.984930 0.169091 -0.036342
vn 0.000000 -1.000000 0.000000
vn 0.000000 -1.000000 0.000000
vn 0.000000 -1.000000 0.000000
vn 0.000000 -1.000000 0.000000
vn 0.000000 -1.000000 0.000000
vn 0.000000 -1.000000 0.000000
vn 0.000000 -1.000000 0.000000
vn 0.000000 -1.000000 0.000000
vn 0.000000 -1.000000 0.000000
vn 0.000000 -1.000000 0.000000
vn 0.000000 -1.000000 0.000000
vn 0.000000 -1.000000 0.000000
vn -0.902062 0.000000 0.431607
vn -0.902062 0.000076 0.431607
vn -0.337545 0.000000 0.941310
vn -0.337545 0.000069 0.941310
vn -0.879823 0.225614 -0.418342
vn -0.882413 0.207619 -0.422186
vn -0.328926 0.203171 -0.922241
vn -0.331577 0.188324 -0.924441
vn -0.902061 0.000987 0.431608
vn -0.337545 0.000890 0.941309
vn 0.337545 0.000890 0.941309
vn 0.902061 0.000985 0.431607
vn 0.337545 0.000000 -0.941309
vn 0.902061 0.000000 -0.431608
vn -0.902062 0.000000 -0.431607
vn -0.337545 0.000000 -0.941310
vn -0.792753 0.522307 0.314225
vn -0.274451 0.549792 0.788927
vn -0.268069 0.927869 0.259226
vn 0.273750 0.552236 0.787462
vn 0.791506 0.524927 0.313001
vn 0.266219 0.928959 0.257221
vn -0.274798 0.438338 -0.855772
vn -0.807463 0.477766 -0.346038
vn -0.271659 0.909713 -0.314045
vn 0.807500 0.477729 -0.346005
vn 0.274821 0.438289 -0.855790
vn 0.271682 0.909721 -0.314000
vn 0.000000 -1.000000 0.000000
vn 0.000000 -1.000000 0.000000
vn 0.000000 -1.000000 0.000000
vn 0.000000 -1.000000 0.000000
vn 0.000000 -1.000000 0.000000
vn 0.000000 -1.000000 0.000000
vn 0.000000 -1.000000 0.000000
vn 0.000000 -1.000000 0.000000
vn 0.000000 -1.000000 0.000000
vn 0.000000 -1.000000 0.000000
vn 0.000000 -1.000000 0.000000
vn 0.000000 -1.000000 0.000000
vn 0.000000 -1.000000 0.000000
vn 0.000000 -1.000000 0.000000
vn 0.000000 -1.000000 0.000000
vn 0.000000 -1.000000 0.000000
vn 0.000000 -1.000000 0.000000
vn 0.000000 -1.000000 0.000000
vn 0.000000 -1.000000 0.000000
vn 0.000000 -1.000000 0.000000
vn 0.000000 -1.000000 0.000000
vn 0.000000 -1.000000 0.000000
vn 0.000000 -1.000000 0.000000
vn 0.000000 -1.000000 0.000000
vn 0.000000 0.871566 0.490278
vn 0.000000 0.871566 0.490279
vn 0.000000 0.871566 0.490278
vn 0.000000 0.871566 0.490278
vn 0.000000 0.871565 -0.490279
vn 0.000000 0.871565 -0.490279
vn 0.000000 0.871565 -0.490280
vn 0.000000 0.871565 -0.490280
vn 0.437831 0.899057 0.000000
vn 0.437831 0.899057 0.000000
vn 0.437831 0.899057 0.000000
vn 0.437831 0.899057 0.000000
vn -0.437831 0.899057 0.000000
vn -0.437831 0.899058 0.000000
vn -0.437831 0.899057 0.000000
vn -0.437831 0.899057 0.000000
vn 0.000000 -1.000000 0.000000
vn 0.000000 -1.000000 0.000000
vn 0.000000 -1.000000 0.000000
vn 0.000000 -1.000000 0.000000
vn 0.000000 -1.000000 0.000000
vn 0.000000 -1.000000 0.000000
vn 0.000000 -1.000000 0.000000
vn 0.000000 -1.000000 0.000000
vn 0.000000 -1.000000 0.000000
vn 0.000000 -1.000000 0.000000
vn 0.000000 -1.000000 0.000000
vn 0.000000 -1.000000 0.000000
vn 0.000000 -1.000000 0.000000
vn 0.000000 -1.000000 0.000000
vn 0.000000 -1.000000 0.000000
vn 0.000000 -1.000000 0.000000
vn 0.000000 -1.000000 0.000000
vn 0.000000 -1.000000 0.000000
vn 0.000000 -1.000000 0.000000
vn 0.000000 -1.000000 0.000000
vn 0.000000 -1.000000 0.000000
vn 0.000000 -1.000000 0.000000
vn 0.000000 -1.000000 0.000000
vn 0.000000 -1.000000 0.000000
vn -0.334446 0.928730 0.160024
vn -0.334446 0.928729 0.160024
vn -0.334446 0.928729 0.160024
vn -0.334446 0.928730 0.160024
vn -0.136436 0.914672 0.380475
vn -0.136436 0.914672 0.380475
vn -0.136436 0.914672 0.380475
vn -0.136436 0.914672 0.380475
vn 0.136436 0.914671 0.380476
vn 0.136436 0.914671 0.380476
vn 0.136436 0.914671 0.380476
vn 0.136436 0.914671 0.380476
vn 0.334446 0.928730 0.160023
vn 0.334446 0.928730 0.160023
vn 0.334446 0.928730 0.160023
vn 0.334446 0.928730 0.160023
vn 0.136421 0.914691 -0.380434
vn 0.136421 0.914691 -0.380434
vn 0.136421 0.914691 -0.380434
vn 0.136421 0.914691 -0.380434
vn 0.334409 0.928746 -0.160004
vn 0.334409 0.928746 -0.160004
vn 0.334409 0.928746 -0.160004
vn 0.334409 0.928746 -0.160004
vn -0.334409 0.928746 -0.160003
vn -0.334409 0.928746 -0.160003
vn -0.334409 0.928746 -0.160003
vn -0.334409 0.928746 -0.160003
vn -0.136420 0.914691 -0.380435
vn -0.136420 0.914691 -0.380435
vn -0.136420 0.914691 -0.380435
vn -0.136420 0.914691 -0.380435
s 1
g pCube44
usemtl initialShadingGroup
f 2/55/1 1/62/2 38/70/3 37/63/4
s 2
f 1/1/5 6/2/6 39/3/7 38/4/8
s 3
f 4/49/9 3/50/10 11/51/11 10/52/12
s 1
f 3/50/13 2/55/1 12/56/14 11/51/15
s 2
f 6/2/6 5/5/16 15/9/17 14/8/18
s 3
f 5/53/19 4/49/9 16/60/20 15/61/21
s 4
f 8/13/22 7/14/23 41/15/24 40/16/25
s 1
f 7/65/26 12/56/14 42/64/27 41/73/28
s 3
f 10/52/12 9/57/29 23/66/30 22/59/31
s 4
f 9/17/32 8/13/22 24/20/33 23/21/34
s 5
f 18/75/35 17/67/36 21/68/37 20/76/38
s 3
f 17/67/39 16/60/20 22/59/31 21/68/40
s 5
f 20/121/38 19/122/41 35/123/42 34/124/43
s 4
f 19/22/44 24/20/33 36/19/45 35/23/46
s 6
f 53/129/47 54/130/48 55/131/49 56/132/50
s 7
f 54/25/51 57/26/52 58/27/53 55/28/54
f 59/29/55 60/33/56 61/34/57 62/30/58
s 9
f 60/141/59 63/142/60 64/143/61 61/144/62
f 65/146/63 66/150/64 67/151/65 68/145/66
s 11
f 66/37/67 69/38/68 70/39/69 67/40/70
s 6
f 71/135/71 56/132/50 72/134/72 73/137/73
s 3
f 4/49/9 10/52/12 22/59/31 16/60/20
s 9
f 74/149/74 75/147/75 64/143/61 68/145/66
s 7
f 58/27/53 62/30/58 76/35/76 77/31/77
s 11
f 70/39/69 78/42/78 79/47/79 80/43/80
s 6
f 71/135/71 81/136/81 53/129/47 56/132/50
s 7
f 58/27/53 57/26/52 59/29/55 62/30/58
s 9
f 68/145/66 64/143/61 63/142/60 65/146/63
s 11
f 70/39/69 69/38/68 82/41/82 78/42/78
s 5
f 18/125/35 20/121/38 34/124/43 31/126/83
s 4
f 40/16/25 36/19/45 24/20/33 8/13/22
s 1
f 37/63/4 42/64/27 12/56/14 2/55/1
s 2
f 33/7/84 39/3/7 6/2/6 14/8/18
s off
f 46/97/85 47/98/86 45/99/87 43/100/88 44/101/89 28/102/90 29/103/91 30/104/92 26/105/93 27/106/94 25/107/95 48/108/96
s 11
f 82/41/82 83/45/97 84/46/98 78/42/78
s 6
f 83/138/99 81/136/81 71/135/71 84/139/100
s 2
f 14/8/18 13/10/101 32/11/102 33/7/84
s 5
f 13/127/103 18/125/35 31/126/83 32/128/104
s 11
f 78/42/78 84/46/98 85/48/105 79/47/79
s 6
f 84/139/100 71/135/71 73/137/73 85/140/106
f 56/132/50 55/131/49 86/133/107 72/134/72
s 7
f 55/28/54 58/27/53 77/31/77 86/32/108
s 9
f 75/147/75 87/148/109 61/144/62 64/143/61
s 7
f 87/36/110 76/35/76 62/30/58 61/34/57
s 11
f 80/43/80 88/44/111 67/40/70 70/39/69
s 9
f 88/152/112 74/149/74 68/145/66 67/151/65
s 2
f 5/5/16 6/2/6 1/1/5 49/6/113
s 1
f 1/62/2 2/55/1 3/50/13 49/54/114
s 3
f 3/50/10 4/49/9 5/53/19 49/54/115
s 1
f 11/51/15 12/56/14 7/65/26 50/58/116
s 4
f 7/14/23 8/13/22 9/17/32 50/18/117
s 3
f 9/57/29 10/52/12 11/51/11 50/58/118
s 5
f 17/67/36 18/75/35 13/77/103 51/69/119
s 2
f 13/10/101 14/8/18 15/9/17 51/12/120
s 3
f 15/61/21 16/60/20 17/67/39 51/69/121
s 4
f 23/21/34 24/20/33 19/22/44 52/24/122
s 5
f 19/80/41 20/76/38 21/68/37 52/74/123
s 3
f 21/68/40 22/59/31 23/66/30 52/74/124
s off
f 30/104/125 29/103/126 54/115/127 53/116/128
f 29/103/129 28/102/130 57/114/131 54/115/132
f 44/101/133 43/100/134 60/112/135 59/113/136
f 43/100/137 45/99/138 63/111/139 60/112/140
f 47/98/141 46/97/142 66/109/143 65/110/144
f 46/97/145 48/108/146 69/120/147 66/109/148
f 42/64/149 37/63/150 73/71/151 72/72/152
f 31/93/153 34/95/154 75/96/155 74/94/156
f 36/87/157 40/83/158 77/84/159 76/88/160
f 39/81/161 33/85/162 80/86/163 79/82/164
f 26/105/165 30/104/166 53/116/167 81/117/168
f 28/102/169 44/101/170 59/113/171 57/114/172
f 45/99/173 47/98/174 65/110/175 63/111/176
f 48/108/177 25/107/178 82/119/179 69/120/180
f 25/107/181 27/106/182 83/118/183 82/119/184
f 27/106/185 26/105/186 81/117/187 83/118/188
f 38/70/189 39/81/190 79/82/191 85/78/192
f 37/63/193 38/70/194 85/78/195 73/71/196
f 41/73/197 42/64/198 72/72/199 86/79/200
f 40/83/201 41/73/202 86/79/203 77/84/204
f 34/95/205 35/91/206 87/92/207 75/96/208
f 35/91/209 36/87/210 76/88/211 87/92/212
f 33/85/213 32/89/214 88/90/215 80/86/216
f 32/89/217 31/93/218 74/94/219 88/90/220
